<mxfile host="app.diagrams.net" modified="2022-02-21T17:47:04.166Z" agent="5.0 (Macintosh; Intel Mac OS X 10_15_7) AppleWebKit/537.36 (KHTML, like Gecko) Chrome/98.0.4758.80 Safari/537.36" etag="067xt4-M_m1dpwxBP6sB" version="16.5.6" type="github">
  <diagram id="Mp5IYmiqdGt_C0A2nhaZ" name="Page-1">
    <mxGraphModel dx="2544" dy="1941" grid="1" gridSize="10" guides="1" tooltips="1" connect="1" arrows="1" fold="1" page="1" pageScale="1" pageWidth="850" pageHeight="1100" math="0" shadow="0">
      <root>
        <mxCell id="0" />
        <mxCell id="1" parent="0" />
        <mxCell id="0NE1rVHN76mkDAG1QykA-1" value="" style="rounded=0;whiteSpace=wrap;html=1;" parent="1" vertex="1">
          <mxGeometry x="70" y="350" width="710" height="370" as="geometry" />
        </mxCell>
        <mxCell id="0NE1rVHN76mkDAG1QykA-2" value="pre-home page:&lt;br&gt;with funny animation, welcome&lt;br&gt;&#39;enter&#39; button" style="rounded=0;whiteSpace=wrap;html=1;" parent="1" vertex="1">
          <mxGeometry x="80" y="-120" width="330" height="140" as="geometry" />
        </mxCell>
        <mxCell id="0NE1rVHN76mkDAG1QykA-3" value="Portfolio/home.&lt;br&gt;sandbox link to each project" style="rounded=0;whiteSpace=wrap;html=1;" parent="1" vertex="1">
          <mxGeometry x="80" y="100" width="120" height="60" as="geometry" />
        </mxCell>
        <mxCell id="0NE1rVHN76mkDAG1QykA-5" value="About&lt;span style=&quot;color: rgba(0 , 0 , 0 , 0) ; font-family: monospace ; font-size: 0px&quot;&gt;%3CmxGraphModel%3E%3Croot%3E%3CmxCell%20id%3D%220%22%2F%3E%3CmxCell%20id%3D%221%22%20parent%3D%220%22%2F%3E%3CmxCell%20id%3D%222%22%20value%3D%22pre-home%20page%26lt%3Bbr%26gt%3Bwith%20funny%20animation%26lt%3Bbr%26gt%3B&#39;enter&#39;%20button%22%20style%3D%22rounded%3D0%3BwhiteSpace%3Dwrap%3Bhtml%3D1%3B%22%20vertex%3D%221%22%20parent%3D%221%22%3E%3CmxGeometry%20x%3D%2260%22%20y%3D%2240%22%20width%3D%22120%22%20height%3D%2260%22%20as%3D%22geometry%22%2F%3E%3C%2FmxCell%3E%3C%2Froot%3E%3C%2FmxGraphModel%3E&lt;/span&gt;" style="rounded=0;whiteSpace=wrap;html=1;" parent="1" vertex="1">
          <mxGeometry x="225" y="100" width="120" height="60" as="geometry" />
        </mxCell>
        <mxCell id="0NE1rVHN76mkDAG1QykA-6" value="contact&lt;br&gt;+ form to send email directly" style="rounded=0;whiteSpace=wrap;html=1;" parent="1" vertex="1">
          <mxGeometry x="425" y="100" width="120" height="60" as="geometry" />
        </mxCell>
        <mxCell id="0NE1rVHN76mkDAG1QykA-13" value="Game" style="rounded=0;whiteSpace=wrap;html=1;" parent="1" vertex="1">
          <mxGeometry x="340" y="-90" width="128.12" height="60" as="geometry" />
        </mxCell>
        <mxCell id="0NE1rVHN76mkDAG1QykA-14" value="no previous experience,&lt;br&gt;no CS degree,&lt;br&gt;" style="rounded=0;whiteSpace=wrap;html=1;" parent="1" vertex="1">
          <mxGeometry x="423.12" y="-50" width="130" height="50" as="geometry" />
        </mxCell>
        <mxCell id="0NE1rVHN76mkDAG1QykA-15" value="visual concept:&lt;br&gt;black background, colorful icons button (neon collors), smooth animations (hover, transitions, etc), big elements and font, cool font." style="rounded=0;whiteSpace=wrap;html=1;" parent="1" vertex="1">
          <mxGeometry x="-320" y="-340" width="235" height="110" as="geometry" />
        </mxCell>
        <mxCell id="0NE1rVHN76mkDAG1QykA-16" value="style features:&lt;br&gt;-parallax&lt;br&gt;-section observer&lt;br&gt;" style="rounded=0;whiteSpace=wrap;html=1;" parent="1" vertex="1">
          <mxGeometry x="-330" y="-200" width="120" height="60" as="geometry" />
        </mxCell>
        <mxCell id="TyC7K5R4eZDnAL78Thtk-1" value="pre-home page" style="rounded=0;whiteSpace=wrap;html=1;" vertex="1" parent="1">
          <mxGeometry x="20" y="320" width="120" height="60" as="geometry" />
        </mxCell>
        <mxCell id="TyC7K5R4eZDnAL78Thtk-2" value="" style="rounded=0;whiteSpace=wrap;html=1;" vertex="1" parent="1">
          <mxGeometry x="160" y="417.5" width="525" height="235" as="geometry" />
        </mxCell>
        <mxCell id="TyC7K5R4eZDnAL78Thtk-3" value="dev jumping on logs, and evading from hardships of being a self-taught dev" style="rounded=0;whiteSpace=wrap;html=1;" vertex="1" parent="1">
          <mxGeometry x="130" y="410" width="120" height="60" as="geometry" />
        </mxCell>
        <mxCell id="TyC7K5R4eZDnAL78Thtk-7" value="" style="shape=hexagon;perimeter=hexagonPerimeter2;whiteSpace=wrap;html=1;fixedSize=1;" vertex="1" parent="1">
          <mxGeometry x="260" y="550" width="80" height="40" as="geometry" />
        </mxCell>
        <mxCell id="TyC7K5R4eZDnAL78Thtk-8" value="" style="shape=hexagon;perimeter=hexagonPerimeter2;whiteSpace=wrap;html=1;fixedSize=1;" vertex="1" parent="1">
          <mxGeometry x="460" y="510" width="80" height="40" as="geometry" />
        </mxCell>
        <mxCell id="TyC7K5R4eZDnAL78Thtk-9" value="" style="shape=hexagon;perimeter=hexagonPerimeter2;whiteSpace=wrap;html=1;fixedSize=1;" vertex="1" parent="1">
          <mxGeometry x="250" y="470" width="80" height="40" as="geometry" />
        </mxCell>
        <mxCell id="TyC7K5R4eZDnAL78Thtk-11" value="job" style="rounded=0;whiteSpace=wrap;html=1;" vertex="1" parent="1">
          <mxGeometry x="333.75" y="417.5" width="156.25" height="22.5" as="geometry" />
        </mxCell>
        <mxCell id="TyC7K5R4eZDnAL78Thtk-12" value="unemployment" style="rounded=0;whiteSpace=wrap;html=1;" vertex="1" parent="1">
          <mxGeometry x="312.19" y="620" width="220.62" height="32.5" as="geometry" />
        </mxCell>
        <mxCell id="TyC7K5R4eZDnAL78Thtk-5" value="" style="shape=umlActor;verticalLabelPosition=bottom;verticalAlign=top;html=1;outlineConnect=0;" vertex="1" parent="1">
          <mxGeometry x="333.75" y="600" width="27.5" height="30" as="geometry" />
        </mxCell>
        <mxCell id="0NE1rVHN76mkDAG1QykA-4" value="Stack/skills" style="rounded=0;whiteSpace=wrap;html=1;" parent="1" vertex="1">
          <mxGeometry x="287.5" y="140" width="120" height="60" as="geometry" />
        </mxCell>
        <mxCell id="TyC7K5R4eZDnAL78Thtk-18" value="" style="rounded=0;whiteSpace=wrap;html=1;" vertex="1" parent="1">
          <mxGeometry x="70" y="1220" width="710" height="370" as="geometry" />
        </mxCell>
        <mxCell id="TyC7K5R4eZDnAL78Thtk-19" value="Portfolio" style="rounded=0;whiteSpace=wrap;html=1;" vertex="1" parent="1">
          <mxGeometry x="20" y="1210" width="120" height="60" as="geometry" />
        </mxCell>
        <mxCell id="TyC7K5R4eZDnAL78Thtk-24" style="edgeStyle=orthogonalEdgeStyle;rounded=0;orthogonalLoop=1;jettySize=auto;html=1;entryX=-0.01;entryY=0.447;entryDx=0;entryDy=0;entryPerimeter=0;" edge="1" parent="1" source="TyC7K5R4eZDnAL78Thtk-23" target="0NE1rVHN76mkDAG1QykA-2">
          <mxGeometry relative="1" as="geometry" />
        </mxCell>
        <mxCell id="TyC7K5R4eZDnAL78Thtk-25" style="edgeStyle=orthogonalEdgeStyle;rounded=0;orthogonalLoop=1;jettySize=auto;html=1;" edge="1" parent="1" source="TyC7K5R4eZDnAL78Thtk-23" target="0NE1rVHN76mkDAG1QykA-3">
          <mxGeometry relative="1" as="geometry">
            <Array as="points">
              <mxPoint x="-60" y="70" />
              <mxPoint x="140" y="70" />
            </Array>
          </mxGeometry>
        </mxCell>
        <mxCell id="TyC7K5R4eZDnAL78Thtk-26" style="edgeStyle=orthogonalEdgeStyle;rounded=0;orthogonalLoop=1;jettySize=auto;html=1;entryX=0.5;entryY=0;entryDx=0;entryDy=0;" edge="1" parent="1" source="TyC7K5R4eZDnAL78Thtk-23" target="0NE1rVHN76mkDAG1QykA-5">
          <mxGeometry relative="1" as="geometry">
            <Array as="points">
              <mxPoint x="-60" y="70" />
              <mxPoint x="285" y="70" />
            </Array>
          </mxGeometry>
        </mxCell>
        <mxCell id="TyC7K5R4eZDnAL78Thtk-27" style="edgeStyle=orthogonalEdgeStyle;rounded=0;orthogonalLoop=1;jettySize=auto;html=1;entryX=0.5;entryY=0;entryDx=0;entryDy=0;" edge="1" parent="1" source="TyC7K5R4eZDnAL78Thtk-23" target="0NE1rVHN76mkDAG1QykA-6">
          <mxGeometry relative="1" as="geometry">
            <Array as="points">
              <mxPoint x="-60" y="70" />
              <mxPoint x="485" y="70" />
            </Array>
          </mxGeometry>
        </mxCell>
        <mxCell id="TyC7K5R4eZDnAL78Thtk-23" value="App" style="rounded=0;whiteSpace=wrap;html=1;" vertex="1" parent="1">
          <mxGeometry x="-120" width="120" height="60" as="geometry" />
        </mxCell>
        <mxCell id="TyC7K5R4eZDnAL78Thtk-28" value="API practice" style="rounded=0;whiteSpace=wrap;html=1;" vertex="1" parent="1">
          <mxGeometry x="186.40999999999997" y="1330" width="140" height="90" as="geometry" />
        </mxCell>
        <mxCell id="TyC7K5R4eZDnAL78Thtk-29" value="Ayrton Senna memorial" style="rounded=0;whiteSpace=wrap;html=1;" vertex="1" parent="1">
          <mxGeometry x="349.22" y="1330" width="147.19" height="90" as="geometry" />
        </mxCell>
        <mxCell id="TyC7K5R4eZDnAL78Thtk-32" value="Porsche Clone" style="rounded=0;whiteSpace=wrap;html=1;" vertex="1" parent="1">
          <mxGeometry x="186.40999999999997" y="1430" width="140" height="80" as="geometry" />
        </mxCell>
        <mxCell id="TyC7K5R4eZDnAL78Thtk-33" value="PetShop" style="rounded=0;whiteSpace=wrap;html=1;" vertex="1" parent="1">
          <mxGeometry x="516.4099999999999" y="1330" width="146.88" height="90" as="geometry" />
        </mxCell>
        <mxCell id="TyC7K5R4eZDnAL78Thtk-34" value="Game I:&lt;br&gt;Tetris" style="rounded=0;whiteSpace=wrap;html=1;" vertex="1" parent="1">
          <mxGeometry x="349.22" y="1430" width="147.19" height="80" as="geometry" />
        </mxCell>
        <mxCell id="TyC7K5R4eZDnAL78Thtk-35" value="Free Real World Jobs" style="rounded=0;whiteSpace=wrap;html=1;" vertex="1" parent="1">
          <mxGeometry x="186.40999999999997" y="1530" width="470" height="60" as="geometry" />
        </mxCell>
        <mxCell id="TyC7K5R4eZDnAL78Thtk-31" value="site da cy" style="rounded=0;whiteSpace=wrap;html=1;" vertex="1" parent="1">
          <mxGeometry x="226.41000000000008" y="1540" width="100" height="40" as="geometry" />
        </mxCell>
        <mxCell id="TyC7K5R4eZDnAL78Thtk-36" value="another free project" style="rounded=0;whiteSpace=wrap;html=1;" vertex="1" parent="1">
          <mxGeometry x="516.4099999999999" y="1540" width="100" height="40" as="geometry" />
        </mxCell>
        <mxCell id="TyC7K5R4eZDnAL78Thtk-37" value="Game II:&lt;br&gt;Online Chess with webcam" style="rounded=0;whiteSpace=wrap;html=1;" vertex="1" parent="1">
          <mxGeometry x="516.4099999999999" y="1430" width="147.19" height="80" as="geometry" />
        </mxCell>
        <mxCell id="TyC7K5R4eZDnAL78Thtk-38" value="Juan Barbera Filho" style="rounded=0;whiteSpace=wrap;html=1;" vertex="1" parent="1">
          <mxGeometry x="201.40999999999997" y="1240" width="110" height="30" as="geometry" />
        </mxCell>
        <mxCell id="TyC7K5R4eZDnAL78Thtk-39" value="" style="rounded=0;whiteSpace=wrap;html=1;" vertex="1" parent="1">
          <mxGeometry x="70" y="790" width="710" height="370" as="geometry" />
        </mxCell>
        <mxCell id="TyC7K5R4eZDnAL78Thtk-40" value="Home/About Me" style="rounded=0;whiteSpace=wrap;html=1;" vertex="1" parent="1">
          <mxGeometry x="40" y="760" width="120" height="60" as="geometry" />
        </mxCell>
        <mxCell id="TyC7K5R4eZDnAL78Thtk-41" value="Juan Barbera Filho" style="rounded=0;whiteSpace=wrap;html=1;" vertex="1" parent="1">
          <mxGeometry x="189.99999999999997" y="840" width="110" height="30" as="geometry" />
        </mxCell>
        <mxCell id="TyC7K5R4eZDnAL78Thtk-42" value="About Me" style="rounded=0;whiteSpace=wrap;html=1;" vertex="1" parent="1">
          <mxGeometry x="380.08000000000004" y="1240" width="63.59" height="30" as="geometry" />
        </mxCell>
        <mxCell id="TyC7K5R4eZDnAL78Thtk-43" value="Contact" style="rounded=0;whiteSpace=wrap;html=1;" vertex="1" parent="1">
          <mxGeometry x="656.4100000000001" y="1240" width="63.59" height="30" as="geometry" />
        </mxCell>
        <mxCell id="TyC7K5R4eZDnAL78Thtk-44" value="Portfolio" style="rounded=0;whiteSpace=wrap;html=1;" vertex="1" parent="1">
          <mxGeometry x="469.22" y="1240" width="63.59" height="30" as="geometry" />
        </mxCell>
        <mxCell id="TyC7K5R4eZDnAL78Thtk-45" value="About Me" style="rounded=0;whiteSpace=wrap;html=1;" vertex="1" parent="1">
          <mxGeometry x="380.16" y="840" width="63.59" height="30" as="geometry" />
        </mxCell>
        <mxCell id="TyC7K5R4eZDnAL78Thtk-46" value="Contact" style="rounded=0;whiteSpace=wrap;html=1;" vertex="1" parent="1">
          <mxGeometry x="640.0000000000001" y="840" width="63.59" height="30" as="geometry" />
        </mxCell>
        <mxCell id="TyC7K5R4eZDnAL78Thtk-47" value="Portfolio" style="rounded=0;whiteSpace=wrap;html=1;" vertex="1" parent="1">
          <mxGeometry x="468.12" y="840" width="63.59" height="30" as="geometry" />
        </mxCell>
        <mxCell id="TyC7K5R4eZDnAL78Thtk-58" style="edgeStyle=orthogonalEdgeStyle;rounded=0;orthogonalLoop=1;jettySize=auto;html=1;entryX=0;entryY=0.5;entryDx=0;entryDy=0;" edge="1" parent="1" source="TyC7K5R4eZDnAL78Thtk-48" target="TyC7K5R4eZDnAL78Thtk-51">
          <mxGeometry relative="1" as="geometry" />
        </mxCell>
        <mxCell id="TyC7K5R4eZDnAL78Thtk-48" value="information displayed with parallax and section observer&amp;nbsp;" style="rounded=0;whiteSpace=wrap;html=1;" vertex="1" parent="1">
          <mxGeometry x="225" y="925" width="415" height="170" as="geometry" />
        </mxCell>
        <mxCell id="TyC7K5R4eZDnAL78Thtk-49" value="Face Recognizer" style="rounded=0;whiteSpace=wrap;html=1;" vertex="1" parent="1">
          <mxGeometry x="552.82" y="840" width="63.59" height="30" as="geometry" />
        </mxCell>
        <mxCell id="TyC7K5R4eZDnAL78Thtk-50" value="Face Recognizer" style="rounded=0;whiteSpace=wrap;html=1;" vertex="1" parent="1">
          <mxGeometry x="562.82" y="1240" width="63.59" height="30" as="geometry" />
        </mxCell>
        <mxCell id="TyC7K5R4eZDnAL78Thtk-51" value="" style="rounded=0;whiteSpace=wrap;html=1;" vertex="1" parent="1">
          <mxGeometry x="760" y="820" width="710" height="320" as="geometry" />
        </mxCell>
        <mxCell id="TyC7K5R4eZDnAL78Thtk-52" value="Skills" style="rounded=0;whiteSpace=wrap;html=1;" vertex="1" parent="1">
          <mxGeometry x="850" y="860" width="120" height="60" as="geometry" />
        </mxCell>
        <mxCell id="TyC7K5R4eZDnAL78Thtk-53" value="Education History" style="rounded=0;whiteSpace=wrap;html=1;" vertex="1" parent="1">
          <mxGeometry x="850" y="980" width="120" height="60" as="geometry" />
        </mxCell>
        <mxCell id="TyC7K5R4eZDnAL78Thtk-55" value="Languages" style="rounded=0;whiteSpace=wrap;html=1;" vertex="1" parent="1">
          <mxGeometry x="850" y="920" width="120" height="60" as="geometry" />
        </mxCell>
        <mxCell id="TyC7K5R4eZDnAL78Thtk-56" value="Surfing video + youtube channel" style="rounded=0;whiteSpace=wrap;html=1;" vertex="1" parent="1">
          <mxGeometry x="850" y="1040" width="120" height="60" as="geometry" />
        </mxCell>
        <mxCell id="TyC7K5R4eZDnAL78Thtk-57" value="courses" style="rounded=0;whiteSpace=wrap;html=1;" vertex="1" parent="1">
          <mxGeometry x="1035" y="860" width="120" height="60" as="geometry" />
        </mxCell>
      </root>
    </mxGraphModel>
  </diagram>
</mxfile>
